<mxfile host="app.diagrams.net" modified="2023-05-22T01:50:18.732Z" agent="Mozilla/5.0 (Windows NT 10.0; Win64; x64) AppleWebKit/537.36 (KHTML, like Gecko) Chrome/113.0.0.0 Safari/537.36" etag="bfrK-0TAgBNS4HKV9CHs" version="21.3.2" type="google">
  <diagram id="kgpKYQtTHZ0yAKxKKP6v" name="Page-1">
    <mxGraphModel grid="1" page="1" gridSize="10" guides="1" tooltips="1" connect="1" arrows="1" fold="1" pageScale="1" pageWidth="850" pageHeight="1100" math="0" shadow="0">
      <root>
        <mxCell id="0" />
        <mxCell id="1" parent="0" />
        <mxCell id="M5mWXDodQlKgrc-eD4wH-2" value="Usuario" style="shape=umlActor;verticalLabelPosition=bottom;verticalAlign=top;html=1;outlineConnect=0;" vertex="1" parent="1">
          <mxGeometry x="30" y="203" width="30" height="60" as="geometry" />
        </mxCell>
        <mxCell id="M5mWXDodQlKgrc-eD4wH-4" value="" style="endArrow=none;html=1;rounded=0;" edge="1" parent="1">
          <mxGeometry width="50" height="50" relative="1" as="geometry">
            <mxPoint x="820" y="430" as="sourcePoint" />
            <mxPoint x="820" y="430" as="targetPoint" />
          </mxGeometry>
        </mxCell>
        <mxCell id="M5mWXDodQlKgrc-eD4wH-23" value="" style="endArrow=none;html=1;rounded=0;entryX=-0.04;entryY=0.505;entryDx=0;entryDy=0;entryPerimeter=0;" edge="1" parent="1" target="kYgKHTBkKikAd4nY9MiJ-2">
          <mxGeometry width="50" height="50" relative="1" as="geometry">
            <mxPoint x="80" y="236" as="sourcePoint" />
            <mxPoint x="250" y="236" as="targetPoint" />
            <Array as="points">
              <mxPoint x="190" y="235.66" />
            </Array>
          </mxGeometry>
        </mxCell>
        <mxCell id="kYgKHTBkKikAd4nY9MiJ-2" value="" style="shape=umlBoundary;whiteSpace=wrap;html=1;" vertex="1" parent="1">
          <mxGeometry x="201" y="207.5" width="70" height="55" as="geometry" />
        </mxCell>
        <mxCell id="kYgKHTBkKikAd4nY9MiJ-3" value="Registro" style="text;html=1;align=center;verticalAlign=middle;resizable=0;points=[];autosize=1;strokeColor=none;fillColor=none;" vertex="1" parent="1">
          <mxGeometry x="210" y="262.5" width="70" height="30" as="geometry" />
        </mxCell>
        <mxCell id="kYgKHTBkKikAd4nY9MiJ-5" value="" style="line;strokeWidth=1;fillColor=none;align=left;verticalAlign=middle;spacingTop=-1;spacingLeft=3;spacingRight=3;rotatable=0;labelPosition=right;points=[];portConstraint=eastwest;strokeColor=inherit;" vertex="1" parent="1">
          <mxGeometry x="270" y="231.5" width="180" height="8" as="geometry" />
        </mxCell>
        <mxCell id="kYgKHTBkKikAd4nY9MiJ-6" value="1. Ingresa los Datos" style="html=1;verticalAlign=bottom;endArrow=block;edgeStyle=elbowEdgeStyle;elbow=vertical;curved=0;rounded=0;" edge="1" parent="1">
          <mxGeometry y="10" width="80" relative="1" as="geometry">
            <mxPoint x="90" y="220" as="sourcePoint" />
            <mxPoint x="170" y="220" as="targetPoint" />
            <mxPoint as="offset" />
            <Array as="points">
              <mxPoint x="160" y="220" />
            </Array>
          </mxGeometry>
        </mxCell>
        <mxCell id="kYgKHTBkKikAd4nY9MiJ-7" value="" style="ellipse;shape=umlControl;whiteSpace=wrap;html=1;" vertex="1" parent="1">
          <mxGeometry x="450" y="200" width="60" height="60" as="geometry" />
        </mxCell>
        <mxCell id="kYgKHTBkKikAd4nY9MiJ-8" value="" style="ellipse;shape=umlEntity;whiteSpace=wrap;html=1;" vertex="1" parent="1">
          <mxGeometry x="660" y="207" width="70" height="60" as="geometry" />
        </mxCell>
        <mxCell id="kYgKHTBkKikAd4nY9MiJ-9" value="Usuario" style="text;html=1;align=center;verticalAlign=middle;resizable=0;points=[];autosize=1;strokeColor=none;fillColor=none;" vertex="1" parent="1">
          <mxGeometry x="665" y="263" width="60" height="30" as="geometry" />
        </mxCell>
        <mxCell id="kYgKHTBkKikAd4nY9MiJ-10" value="Controlador Registro" style="text;html=1;align=center;verticalAlign=middle;resizable=0;points=[];autosize=1;strokeColor=none;fillColor=none;" vertex="1" parent="1">
          <mxGeometry x="415" y="260" width="130" height="30" as="geometry" />
        </mxCell>
        <mxCell id="kYgKHTBkKikAd4nY9MiJ-11" value="2. Valida Datos Ingresados" style="html=1;verticalAlign=bottom;endArrow=block;edgeStyle=elbowEdgeStyle;elbow=vertical;curved=0;rounded=0;" edge="1" parent="1">
          <mxGeometry y="10" width="80" relative="1" as="geometry">
            <mxPoint x="315" y="220" as="sourcePoint" />
            <mxPoint x="395" y="220" as="targetPoint" />
            <mxPoint as="offset" />
            <Array as="points">
              <mxPoint x="385" y="220" />
            </Array>
          </mxGeometry>
        </mxCell>
        <mxCell id="kYgKHTBkKikAd4nY9MiJ-12" value="3. Crea Usuario nuevo" style="html=1;verticalAlign=bottom;endArrow=block;edgeStyle=elbowEdgeStyle;elbow=vertical;curved=0;rounded=0;" edge="1" parent="1">
          <mxGeometry y="10" width="80" relative="1" as="geometry">
            <mxPoint x="550" y="220" as="sourcePoint" />
            <mxPoint x="630" y="220" as="targetPoint" />
            <mxPoint as="offset" />
            <Array as="points">
              <mxPoint x="620" y="220" />
            </Array>
          </mxGeometry>
        </mxCell>
        <mxCell id="kYgKHTBkKikAd4nY9MiJ-13" value="" style="line;strokeWidth=1;fillColor=none;align=left;verticalAlign=middle;spacingTop=-1;spacingLeft=3;spacingRight=3;rotatable=0;labelPosition=right;points=[];portConstraint=eastwest;strokeColor=inherit;" vertex="1" parent="1">
          <mxGeometry x="510" y="231.5" width="150" height="8" as="geometry" />
        </mxCell>
        <mxCell id="kYgKHTBkKikAd4nY9MiJ-18" value="4. Retorna ok" style="html=1;verticalAlign=bottom;endArrow=block;edgeStyle=elbowEdgeStyle;elbow=vertical;curved=0;rounded=0;" edge="1" parent="1">
          <mxGeometry x="0.4667" y="-7" width="80" relative="1" as="geometry">
            <mxPoint x="560" y="274.5" as="sourcePoint" />
            <mxPoint x="550" y="274.5" as="targetPoint" />
            <mxPoint as="offset" />
            <Array as="points">
              <mxPoint x="630" y="274.5" />
            </Array>
          </mxGeometry>
        </mxCell>
        <mxCell id="kYgKHTBkKikAd4nY9MiJ-20" value="5. Retorna mensaje resgitro exitoso" style="html=1;verticalAlign=bottom;endArrow=block;edgeStyle=elbowEdgeStyle;elbow=vertical;curved=0;rounded=0;" edge="1" parent="1">
          <mxGeometry x="0.4667" y="-7" width="80" relative="1" as="geometry">
            <mxPoint x="337.5" y="277.5" as="sourcePoint" />
            <mxPoint x="312.5" y="277.5" as="targetPoint" />
            <mxPoint as="offset" />
            <Array as="points">
              <mxPoint x="407.5" y="277.5" />
            </Array>
          </mxGeometry>
        </mxCell>
        <mxCell id="kYgKHTBkKikAd4nY9MiJ-22" value="6. Visualizar mensaje" style="html=1;verticalAlign=bottom;endArrow=block;edgeStyle=elbowEdgeStyle;elbow=vertical;curved=0;rounded=0;" edge="1" parent="1">
          <mxGeometry x="0.4667" y="-7" width="80" relative="1" as="geometry">
            <mxPoint x="100" y="277.5" as="sourcePoint" />
            <mxPoint x="90" y="277.5" as="targetPoint" />
            <mxPoint as="offset" />
            <Array as="points">
              <mxPoint x="170" y="277.5" />
            </Array>
          </mxGeometry>
        </mxCell>
      </root>
    </mxGraphModel>
  </diagram>
</mxfile>
